# AST/ASF file generated using VICON BodyLanguage
# -----------------------------------------------
:version 1.10
:name VICON
:units
  mass 1.0
  length 0.45
  angle deg
:documentation
   .ast/.asf automatically generated from VICON data using
   VICON BodyBuilder and BodyLanguage model FoxedUp or BRILLIANT.MOD
:root
   order TX TY TZ RX RY RZ
   axis XYZ
   position 0 0 0  
   orientation 0 0 0 
:bonedata
  begin
     id 1 
     name lhipjoint
     direction 0.611804 -0.747784 0.257906 
     length 2.29243 
     axis 0 0 0  XYZ
  end
  begin
     id 2 
     name lfemur
     direction 0.34202 -0.939693 0  
     length 7.31159  
     axis 0 0 20  XYZ
    dof rx ry rz
    limits (-160.0 20.0)
           (-70.0 70.0)
           (-60.0 70.0)
  end
  begin
     id 3 
     name ltibia
     direction 0.34202 -0.939693 0   
     length 7.33391   
     axis 0 0 20   XYZ
    dof rx
    limits (-10.0 170.0)
  end
  begin
     id 4 
     name lfoot
     direction 0.122263 -0.335914 0.933924   
     length 1.76083   
     axis -90 7.62852e-016 20   XYZ
    dof rx rz
    limits (-45.0 90.0)
           (-70.0 20.0)
  end
  begin
     id 5 
     name ltoes
     direction 1.53533e-011 -4.2177e-011 1   
     length 0.879206   
     axis -90 7.62852e-016 20   XYZ
    dof rx
    limits (-90.0 20.0)
  end
  begin
     id 6 
     name rhipjoint
     direction -0.646469 -0.721248 0.248754   
     length 2.37677  
     axis 0 0 0  XYZ 
  end
  begin
     id 7 
     name rfemur
     direction -0.34202 -0.939693 0   
     length 7.18623   
     axis 0 0 -20   XYZ
    dof rx ry rz
    limits (-160.0 20.0)
           (-70.0 70.0)
           (-70.0 60.0)
  end
  begin
     id 8 
     name rtibia
     direction -0.34202 -0.939693 0   
     length 7.36567   
     axis 0 0 -20   XYZ
    dof rx
    limits (-10.0 170.0)
 end
 begin
     id 9 
     name rfoot
     direction -0.126681 -0.348054 0.928876   
     length 1.71902  
     axis -90 -7.62852e-016 -20   XYZ
    dof rx rz
    limits (-45.0 90.0)
           (-20.0 70.0)
  end
  begin
     id 10 
     name rtoes
     direction -1.53551e-011 -4.21898e-011 1   
     length 0.857792   
     axis -90 -7.62852e-016 -20   XYZ
    dof rx
    limits (-90.0 20.0)
  end
  begin
     id 11 
     name lowerback
     direction 0.0106509 0.999778 0.0181844   
     length 2.07668   
     axis 0 0 0   XYZ
    dof rx ry rz
    limits (-20.0 45.0)
           (-30.0 30.0)
           (-30.0 30.0)
  end
  begin
     id 12 
     name upperback
     direction -0.00456018 0.999989 -0.000590935   
     length 2.08011   
     axis 0 0 0   XYZ
    dof rx ry rz
    limits (-20.0 45.0)
           (-30.0 30.0)
           (-30.0 30.0)
  end
  begin
     id 13 
     name thorax
     direction -0.00910382 0.999916 -0.00923765   
     length 2.07397   
     axis 0 0 0   XYZ
    dof rx ry rz
    limits (-20.0 45.0)
           (-30.0 30.0)
           (-30.0 30.0)
  end
  begin
     id 14 
     name lowerneck
     direction 0.00171967 0.99778 0.0665733   
     length 1.67556   
     axis 0 0 0   XYZ
    dof rx ry rz
    limits (-20.0 45.0)
           (-30.0 30.0)
           (-30.0 30.0)
  end
  begin
     id 15 
     name upperneck
     direction -0.0143166 0.991302 -0.130828   
     length 1.68462   
     axis 0 0 0   XYZ
    dof rx ry rz
    limits (-20.0 45.0)
           (-30.0 30.0)
           (-30.0 30.0)
  end
  begin
     id 16
     name head
     direction -0.00606378 0.998665 -0.0512995  
     length 1.69269  
     axis 0 0 0   XYZ
    dof rx ry rz
    limits (-20.0 45.0)
           (-30.0 30.0)
           (-30.0 30.0)
  end
  begin
     id 17 
     name lclavicle
     direction 0.9638 0.179341 0.197297  
     length 4.12888  
     axis 0 0 0   XYZ
    dof ry rz
    limits (-20.0 10.0)
           (0.0 20.0)
  end
  begin
     id 18 
     name lhumerus
     direction 1 -4.48972e-011 -2.47351e-027   
     length 5.01834   
     axis -180 -30 -90   XYZ
    dof rx ry rz
    limits (-60.0 90.0)
           (-90.0 90.0)
           (-90.0 90.0)
  end
  begin
     id 19
     name lradius
     direction 1 -4.48965e-011 1.51591e-026   
     length 3.4869   
     axis -180 -30 -90   XYZ
    dof rx
    limits (-10.0 170.0)
  end
  begin
     id 20
     name lwrist
     direction 1 -4.48957e-011 2.70032e-026   
     length 1.74345   
     axis -1.81515e-014 90 90   XYZ
    dof ry
    limits (-180.0 0.0)
 end
  begin
     id 21 
     name lhand
     direction 1 -4.48951e-011 5.40064e-026   
     length 0.76799   
     axis -3.44607e-014 90 90   XYZ
    dof rx rz
    limits (-90.0 90.0)
           (-45.0 45.0)
  end
  begin
     id 22 
     name lfingers
     direction 1 -4.48971e-011 1.08013e-025   
     length 0.619174   
     axis -6.89214e-014 90 90   XYZ
    dof rx
    limits (0.0 90.0)
  end
  begin
     id 23
     name lthumb
     direction 0.707107 -6.34931e-011 0.707107   
     length 0.889013   
     axis -90 45 2.85299e-015   XYZ
    dof rx rz
    limits (-45.0 45.0)
           (-45.0 45.0)
  end
  begin
     id 24 
     name rclavicle
     direction -0.961409 0.252588 0.109054   
     length 4.04305  
     axis 0 0 0   XYZ 
    dof ry rz
    limits (-10.0 20.0)
           (-20.0 0.0)
  end
  begin
     id 25 
     name rhumerus
     direction -1 -4.4897e-011 1.33872e-017  
     length 4.70164   
     axis -180 30 90   XYZ
    dof rx ry rz
    limits (-90.0 60.0)
           (-90.0 90.0)
           (-90.0 90.0)
  end
  begin
     id 26 
     name rradius
     direction -1 -4.48954e-011 1.83844e-026   
     length 3.49911   
     axis -180 30 90   XYZ
    dof rx
    limits (-10.0 170.0)
  end
  begin
     id 27 
     name rwrist
     direction -1 -4.49008e-011 2.70032e-026   
     length 1.74955   
     axis -1.81515e-014 -90 -90   XYZ
    dof ry
    limits (-180.0 0.0)
  end
  begin
     id 28
     name rhand
     direction -1 -4.48916e-011 5.40064e-026   
     length 0.739335   
     axis -3.44607e-014 -90 -90   XYZ
    dof rx rz
    limits (-90.0 90.0)
           (-45.0 45.0)
  end
  begin
     id 29
     name rfingers
     direction -1 -4.48987e-011 1.08013e-025   
     length 0.596071   
     axis -6.89214e-014 -90 -90   XYZ
    dof rx
    limits (0.0 90.0)
  end
  begin
     id 30
     name rthumb
     direction -0.707107 -6.34935e-011 0.707107   
     length 0.855843   
     axis -90 -45 -2.85299e-015   XYZ
    dof rx rz
    limits (-45.0 45.0)
           (-45.0 45.0)
  end
:hierarchy
  begin
    root lhipjoint rhipjoint lowerback
    lhipjoint lfemur
    lfemur ltibia
    ltibia lfoot
    lfoot ltoes
    rhipjoint rfemur
    rfemur rtibia
    rtibia rfoot
    rfoot rtoes
    lowerback upperback
    upperback thorax
    thorax lowerneck lclavicle rclavicle
    lowerneck upperneck
    upperneck head
    lclavicle lhumerus
    lhumerus lradius
    lradius lwrist
    lwrist lhand lthumb
    lhand lfingers
    rclavicle rhumerus
    rhumerus rradius
    rradius rwrist
    rwrist rhand rthumb
    rhand rfingers
  end

#!OML:ASF I:\salsa\salsa 7_09\Patient 1\Session 1\dancermale.ASF
:FULLY-SPECIFIED
:DEGREES
997
root 4.718 17.2875 -0.851338 374.247 -67.2958 351.452
lowerback -5.63468 4.51302 3.69294
upperback -1.81567 5.75883 0.787772
thorax 1.55581 2.86363 -0.838744
lowerneck -8.30332 -4.03881 -1.24964
upperneck 18.8755 -4.79794 -3.91601
head 7.07184 -2.80189 -1.473
rclavicle 6.63937e-014 8.54774e-015
rhumerus -6.39853 3.48768 -101.09
rradius 79.3602
rwrist -31.3699
rhand -52.914 -2.09579
rfingers 7.12502
rthumb -25.3834 -30.4261
lclavicle 6.63937e-014 8.54774e-015
lhumerus -33.5385 -35.064 116.291
lradius 91.2618
lwrist 30.1575
lhand -11.7482 69.1827
lfingers 7.12502
lthumb 14.2996 -98.6703
rfemur -13.5368 -1.21197 16.2456
rtibia 20.1185
rfoot -13.8255 -19.1298
rtoes -5.29368
lfemur -23.7779 -14.2579 -8.43118
ltibia 39.7393
lfoot -18.9856 -0.569713
ltoes -0.688522
998
root 4.73475 17.2707 -0.918159 374.495 -67.2456 351.159
lowerback -5.5057 4.89102 3.89343
upperback -1.78346 6.25773 0.756726
thorax 1.56345 3.11341 -0.948982
lowerneck -8.33615 -4.41974 -1.41177
upperneck 18.4194 -5.31589 -3.7758
head 6.9317 -3.03955 -1.43408
rclavicle 7.49403e-014 4.07509e-015
rhumerus -5.11667 1.58607 -100.895
rradius 78.2406
rwrist -31.1143
rhand -53.1061 -1.96973
rfingers 7.12502
rthumb -25.5674 -30.2738
lclavicle 7.49403e-014 4.07509e-015
lhumerus -35.0152 -34.401 116.277
lradius 90.8336
lwrist 31.1116
lhand -12.181 69.1507
lfingers 7.12502
lthumb 13.8825 -98.6673
rfemur -14.5053 -1.33639 16.6468
rtibia 21.6105
rfoot -14.3064 -18.8906
rtoes -3.6087
lfemur -24.4367 -14.0291 -7.93939
ltibia 40.7271
lfoot -18.7636 -1.18406
ltoes -0.0116475
999
root 4.75198 17.2529 -0.981477 374.009 -67.1886 351.602
lowerback -5.43123 5.21508 3.8167
upperback -1.64173 6.69859 0.651889
thorax 1.69278 3.33805 -0.976588
lowerneck -8.41864 -4.7991 -1.62283
upperneck 17.894 -5.8356 -3.55043
head 6.78456 -3.27351 -1.35985
rclavicle 6.3212e-014 8.94531e-015
rhumerus -3.71896 -0.18448 -100.784
rradius 77.0493
rwrist -31.415
rhand -53.543 -1.49262
rfingers 7.12502
rthumb -25.9858 -29.7359
lclavicle 6.3212e-014 8.94531e-015
lhumerus -36.3904 -33.7932 116.018
lradius 90.4312
lwrist 31.5422
lhand -12.3718 68.629
lfingers 7.12502
lthumb 13.6987 -98.1581
rfemur -15.5349 -1.37112 16.7196
rtibia 23.3559
rfoot -14.928 -18.7849
rtoes -2.71034
lfemur -25.0536 -13.8155 -7.79592
ltibia 41.5967
lfoot -18.4033 -1.87001
ltoes -0.280504
1000
root 4.77424 17.236 -1.03896 373.294 -66.9916 352.367
lowerback -5.48808 5.44918 3.63844
upperback -1.45595 7.01863 0.539914
thorax 1.92399 3.50365 -0.949783
lowerneck -8.40208 -5.1347 -1.85039
upperneck 17.1987 -6.30757 -3.24735
head 6.57218 -3.4776 -1.24742
rclavicle 1.00616e-013 1.48095e-014
rhumerus -2.12277 -1.83425 -100.739
rradius 75.5359
rwrist -32.495
rhand -53.9631 0.170767
rfingers 7.12502
rthumb -26.388 -28.0129
lclavicle 1.00616e-013 1.48095e-014
lhumerus -37.5623 -33.0567 115.526
lradius 90.1273
lwrist 31.9001
lhand -12.2969 68.1522
lfingers 7.12502
lthumb 13.7709 -97.6765
rfemur -16.5666 -1.17326 16.6336
rtibia 25.0299
rfoot -15.6854 -18.9654
rtoes -2.26047
lfemur -25.8614 -13.7026 -7.72471
ltibia 42.4803
lfoot -17.9894 -2.8414
ltoes -1.42339
1001
root 4.79664 17.218 -1.0892 372.416 -66.6138 353.336
lowerback -5.52814 5.59176 3.41314
upperback -1.31794 7.22182 0.428671
thorax 2.08484 3.6087 -0.910486
lowerneck -8.33179 -5.42574 -2.02169
upperneck 16.5507 -6.71797 -3.00177
head 6.36525 -3.65567 -1.15681
rclavicle 5.74363e-014 -2.38542e-015
rhumerus -0.480228 -3.39107 -100.748
rradius 73.6173
rwrist -33.3332
rhand -54.4392 0.144036
rfingers 7.12502
rthumb -26.8437 -27.9705
lclavicle 5.74363e-014 -2.38542e-015
lhumerus -38.6487 -32.1553 114.928
lradius 89.936
lwrist 32.6422
lhand -12.4465 68.1931
lfingers 7.12502
lthumb 13.6267 -97.7271
rfemur -17.4609 -1.15369 16.4036
rtibia 26.4877
rfoot -16.5211 -19.1224
rtoes -1.15441
lfemur -26.8274 -13.6155 -7.67727
ltibia 43.4193
lfoot -17.5624 -4.21143
ltoes -3.16815
1002
root 4.81718 17.1986 -1.12995 371.446 -66.1588 354.271
lowerback -5.35044 5.70456 3.30034
upperback -1.23912 7.39064 0.281232
thorax 2.08034 3.69496 -0.99822
lowerneck -8.17165 -5.70575 -2.04664
upperneck 15.9644 -7.11398 -2.90152
head 6.1537 -3.83219 -1.1319
rclavicle -2.44039e-014 1.54058e-014
rhumerus 1.00867 -5.04475 -100.898
rradius 71.5979
rwrist -33.173
rhand -54.623 0.29672
rfingers 7.12502
rthumb -27.0195 -27.7906
lclavicle -2.44039e-014 1.54058e-014
lhumerus -39.8413 -31.24 114.219
lradius 89.895
lwrist 33.968
lhand -12.8243 69.044
lfingers 7.12502
lthumb 13.2626 -98.6021
rfemur -18.0623 -1.55968 16.1138
rtibia 27.7333
rfoot -17.2111 -19.0049
rtoes -0.0678524
lfemur -27.7258 -13.5326 -7.59761
ltibia 44.3752
lfoot -16.9615 -5.98075
ltoes -4.96062
1003
root 4.84294 17.179 -1.16022 370.571 -65.7272 354.972
lowerback -4.97559 5.81499 3.38899
upperback -1.171 7.55307 0.143933
thorax 1.97967 3.77813 -1.20735
lowerneck -7.96468 -5.95527 -2.09499
upperneck 15.4367 -7.46551 -2.8083
head 5.95506 -3.99111 -1.10092
rclavicle 7.55195e-014 1.78906e-015
rhumerus 2.30768 -6.76958 -101.094
rradius 69.7815
rwrist -32.8756
rhand -54.4161 -0.0121444
rfingers 7.12502
rthumb -26.8216 -28.13
lclavicle 7.55195e-014 1.78906e-015
lhumerus -40.9746 -30.3073 113.325
lradius 89.9163
lwrist 35.4768
lhand -12.9177 69.9192
lfingers 7.12502
lthumb 13.1725 -99.4831
rfemur -18.4013 -1.96968 15.8818
rtibia 28.7746
rfoot -17.6129 -18.9722
rtoes 0.113414
lfemur -28.6121 -13.3943 -7.38413
ltibia 45.4209
lfoot -16.1645 -8.29487
ltoes -6.83585
1004
root 4.87428 17.1556 -1.18229 370.125 -65.3325 355.313
lowerback -4.74988 5.95827 3.67849
upperback -1.05072 7.74064 0.0531637
thorax 2.03808 3.87665 -1.45598
lowerneck -7.93536 -6.20149 -2.23724
upperneck 15.0036 -7.79357 -2.70532
head 5.82257 -4.14443 -1.05862
rclavicle -8.87698e-015 3.57812e-015
rhumerus 3.58602 -8.45164 -101.199
rradius 68.3513
rwrist -33.1168
rhand -53.9462 -1.17978
rfingers 7.12502
rthumb -26.3718 -29.3659
lclavicle -8.87698e-015 3.57812e-015
lhumerus -41.7905 -29.4488 112.265
lradius 89.8855
lwrist 36.804
lhand -12.6283 69.618
lfingers 7.12502
lthumb 13.4515 -99.1636
rfemur -18.7985 -2.14239 15.7712
rtibia 29.6817
rfoot -17.8543 -19.1789
rtoes -0.267489
lfemur -29.7877 -13.125 -6.89317
ltibia 46.5887
lfoot -15.3169 -11.0571
ltoes -9.15983
1005
root 4.90952 17.1304 -1.20039 369.657 -64.9556 355.658
lowerback -4.47555 6.14221 3.98061
upperback -0.885692 7.98498 -0.0489422
thorax 2.12506 4.00537 -1.72051
lowerneck -7.93941 -6.48494 -2.4375
upperneck 14.5105 -8.16045 -2.61202
head 5.68026 -4.31978 -1.01257
rclavicle 4.06825e-014 -6.16232e-015
rhumerus 4.79866 -10.1319 -101.199
rradius 67.3523
rwrist -33.3313
rhand -53.4344 -2.55208
rfingers 7.12502
rthumb -25.8818 -30.8106
lclavicle 4.06825e-014 -6.16232e-015
lhumerus -42.39 -28.8166 111.153
lradius 89.8418
lwrist 37.8693
lhand -12.3886 69.0585
lfingers 7.12502
lthumb 13.6825 -98.5887
rfemur -19.2271 -2.52652 15.5963
rtibia 30.6179
rfoot -18.0575 -19.1852
rtoes -0.745263
lfemur -30.9835 -12.8911 -6.30613
ltibia 47.6417
lfoot -14.7222 -13.9658
ltoes -12.8652
